<?xml version="1.0" standalone="no"?>
<!DOCTYPE svg PUBLIC "-//W3C//DTD SVG 20010904//EN"
 "http://www.w3.org/TR/2001/REC-SVG-20010904/DTD/svg10.dtd">
<svg version="1.0" xmlns="http://www.w3.org/2000/svg"
 width="768" height="768" viewBox="0 0 2000 2000">
<desc>Created by potrace 1.11, written by Peter Selinger 2001-2013</desc>
<g transform="translate(0,2000) scale(0.1,-0.1)" fill="#000000" stroke="none">
<path d="M2440 18591 l0 -838 -77 -7 c-42 -3 -422 -6 -845 -6 l-768 0 0 -645
0 -645 845 0 845 0 0 -1540 0 -1540 645 0 645 0 0 1540 0 1540 825 0 825 0 0
660 0 660 -825 0 -825 0 0 830 0 830 -645 0 -645 0 0 -839z m820 -456 l0 -825
828 -2 827 -3 3 -192 2 -193 -830 0 -830 0 0 -1540 0 -1540 -180 0 -180 0 0
1540 0 1540 -840 0 -840 0 0 180 0 180 840 0 840 0 0 840 0 840 180 0 180 0 0
-825z"/>
<path transform="translate(9733,16400)" d="M-2692-1554l889,1554l-889,1554l1790,8l902,1546l902-1546l1790-8l-889-1554l889-1554l-1790-8l-902-1546l-902,1546Z M-1920-1109l756-1l-379,657Z M-1920,1109l377-656l379,657Z M-379-1562l379-655l379,655Z M-379,1562h758l-379,655Z M1164-1110l756,1l-377,656Z M1164,1110l379-657l377,656Z M-1282,0l641-1111h1282l641,1111l-641,1111h-1282Z"/>
<path d="M16010 18961 c-15 -29 -12 -167 6 -262 20 -105 81 -291 127 -390 47
-99 178 -270 298 -389 195 -195 413 -311 664 -355 105 -18 350 -21 470 -5 196
26 440 86 560 137 250 107 573 320 641 423 l26 39 -40 83 c-26 53 -73 123
-131 193 -50 61 -130 158 -178 217 l-87 107 -39 -22 c-22 -12 -99 -67 -171
-121 -309 -234 -511 -338 -761 -392 -111 -24 -323 -24 -435 0 -104 22 -224 65
-299 107 -219 122 -492 395 -592 592 -31 61 -42 68 -59 38z"/>
<path d="M15315 18203 c-340 -29 -755 -166 -1009 -333 -115 -75 -276 -199
-276 -212 0 -17 410 -700 418 -696 4 2 95 47 202 100 684 338 1043 380 1255
145 153 -169 167 -245 69 -389 -128 -189 -330 -286 -634 -304 -93 -6 -394 13
-522 32 l-38 6 6 -34 c16 -91 78 -308 114 -398 71 -179 183 -378 272 -483 l23
-28 105 12 c139 15 333 6 433 -20 215 -56 347 -195 408 -429 26 -97 28 -269 5
-357 -61 -231 -237 -412 -484 -494 -401 -135 -1010 -52 -1363 186 -249 168
-479 580 -643 1150 -89 308 -137 425 -165 398 -29 -29 -38 -217 -21 -445 24
-318 81 -605 170 -850 53 -148 172 -389 251 -510 250 -385 622 -683 1011 -811
250 -82 704 -86 948 -8 155 49 336 174 496 342 256 267 363 534 381 942 12
283 -30 503 -147 765 -38 88 -70 161 -70 163 0 3 132 7 293 10 389 6 412 14
578 184 108 111 214 253 320 430 139 232 218 342 319 443 144 145 246 188 415
176 183 -13 277 -50 338 -133 119 -164 178 -412 178 -741 -1 -380 -98 -629
-336 -867 -317 -318 -754 -425 -1078 -265 -194 95 -397 393 -397 581 0 87 -71
-62 -91 -193 -14 -90 -6 -331 15 -446 60 -325 168 -547 354 -723 147 -139 306
-207 538 -230 214 -21 424 17 609 111 332 166 570 512 689 1000 185 759 61
1547 -319 2035 -146 186 -352 347 -520 405 -93 32 -270 45 -443 31 -482 -36
-688 -214 -1056 -910 -106 -200 -174 -304 -258 -395 -153 -168 -318 -213 -523
-143 -83 29 -305 128 -305 136 0 3 44 33 96 66 55 34 120 86 153 121 178 189
354 556 381 794 44 387 -191 831 -527 999 -147 73 -380 105 -618 84z"/>
<path d="M2925 12750 c-617 -63 -1146 -277 -1632 -662 -103 -82 -316 -291
-411 -403 -380 -452 -608 -973 -694 -1585 -17 -128 -17 -602 0 -730 71 -504
222 -912 487 -1310 422 -634 1062 -1084 1800 -1266 267 -66 383 -78 720 -78
260 0 319 3 440 22 363 57 728 180 1022 346 178 99 404 257 523 366 l35 32
-57 -31 c-359 -193 -796 -301 -1218 -301 -693 0 -1343 270 -1830 760 -420 422
-679 967 -741 1558 -15 148 -7 523 15 652 68 400 196 730 405 1040 405 604
1014 999 1723 1120 544 92 1091 8 1601 -246 l112 -56 -44 38 c-184 161 -419
317 -646 429 -308 152 -604 243 -946 290 -136 19 -536 28 -664 15z"/>
<path d="M9660 12751 c-46 -14 -85 -39 -121 -78 -64 -66 -73 -94 -77 -230 l-4
-122 -47 -6 c-756 -99 -1423 -514 -1843 -1145 -217 -325 -374 -743 -413 -1096
l-7 -62 -117 -4 c-89 -3 -126 -9 -161 -25 -60 -27 -108 -76 -138 -142 -21 -46
-24 -64 -20 -127 6 -91 41 -154 112 -201 64 -44 103 -53 222 -53 l100 0 13
-92 c57 -437 256 -898 539 -1253 97 -121 285 -310 407 -408 360 -290 820 -490
1263 -548 l92 -13 0 -100 c0 -119 9 -158 53 -222 47 -71 110 -106 200 -112 92
-6 158 20 218 85 60 65 72 101 77 234 l4 117 62 7 c253 28 557 122 818 252
779 390 1309 1136 1423 2004 l6 47 122 4 c138 4 174 17 238 85 50 52 70 96 76
163 10 111 -49 215 -151 267 -44 23 -66 27 -168 31 l-117 4 -6 47 c-104 781
-550 1474 -1215 1886 -309 191 -685 325 -1041 370 l-47 6 -4 117 c-4 102 -8
124 -31 168 -60 117 -200 180 -317 145z m-200 -1668 l0 -688 -484 484 c-267
267 -483 488 -480 492 9 15 182 127 266 172 189 103 518 211 686 226 9 1 12
-143 12 -686z m684 662 c250 -50 509 -158 724 -301 61 -41 112 -76 112 -77 0
-1 -218 -220 -485 -487 l-485 -485 0 688 c0 378 3 687 6 687 4 0 61 -11 128
-25z m-1554 -1250 l485 -485 -688 0 -689 0 7 53 c23 173 114 443 210 625 60
112 176 292 189 292 1 0 219 -218 486 -485z m2854 372 c142 -212 251 -475 301
-723 14 -67 25 -124 25 -128 0 -3 -309 -6 -687 -6 l-688 0 485 485 c267 267
486 485 487 485 1 0 36 -51 77 -113z m-1572 -824 c159 -71 239 -265 177 -428
-48 -129 -176 -218 -313 -217 -197 1 -337 141 -338 338 0 134 82 257 208 310
50 21 71 24 139 21 53 -2 96 -11 127 -24z m-1282 -1068 c-267 -267 -487 -485
-490 -485 -3 0 -37 48 -77 108 -117 175 -212 382 -266 577 -25 86 -57 242 -57
271 0 12 107 14 687 14 l688 0 -485 -485z m3180 481 c0 -3 -9 -52 -20 -110
-54 -281 -171 -558 -330 -783 -28 -40 -52 -73 -53 -73 -1 0 -220 218 -487 485
l-485 485 688 0 c378 0 687 -2 687 -4z m-2310 -1072 l0 -686 -52 7 c-91 13
-284 63 -386 101 -169 63 -340 156 -527 286 -6 5 192 210 475 493 267 267 486
485 487 485 2 0 3 -309 3 -686z m1515 -285 c-3 -3 -45 -34 -93 -67 -164 -113
-365 -208 -567 -268 -80 -25 -259 -64 -289 -64 -14 0 -16 65 -16 687 l0 688
484 -484 c267 -267 483 -488 481 -492z"/>
<path d="M13120 12734 c-66 -56 -78 -127 -32 -187 15 -19 52 -65 82 -100 108
-127 139 -194 174 -382 36 -189 104 -271 312 -378 195 -100 257 -168 255 -276
-1 -78 23 -115 97 -149 l57 -27 357 -3 356 -3 26 -38 c15 -21 53 -60 86 -87
67 -55 75 -74 29 -74 -88 0 -180 -54 -195 -115 l-6 -25 -316 2 -317 3 -13 28
c-12 24 -18 27 -63 27 -95 0 -89 21 -89 -321 l0 -301 29 -29 29 -29 456 0 456
0 0 -253 0 -254 -67 -12 c-123 -22 -203 -70 -203 -121 0 -15 23 -74 51 -131
28 -57 66 -150 85 -205 l34 -102 0 -1140 c0 -796 3 -1157 11 -1193 8 -37 21
-61 48 -88 49 -49 106 -65 218 -59 72 3 97 9 138 32 28 15 59 39 70 54 20 27
20 45 23 1745 l2 1717 1100 0 1100 0 0 -1711 c0 -1687 0 -1712 20 -1744 11
-17 43 -44 72 -60 44 -24 68 -30 141 -33 112 -6 169 10 218 59 27 27 40 51 48
88 8 36 11 397 11 1193 l0 1140 34 102 c19 55 57 148 85 205 28 57 51 116 51
131 0 51 -80 99 -202 121 l-68 12 0 254 0 253 456 0 456 0 29 29 29 29 0 301
c0 342 6 321 -89 321 -46 0 -52 -3 -66 -30 l-16 -30 -313 0 -314 0 -6 25 c-15
60 -108 115 -195 115 -46 0 -38 21 27 74 31 25 68 62 82 81 l25 34 235 1 c339
1 475 12 544 43 72 33 96 71 95 148 -2 107 61 177 240 268 236 120 296 198
336 432 24 144 61 211 233 419 31 39 42 60 42 86 0 71 -64 144 -126 144 -46 0
-145 -34 -219 -75 -238 -132 -660 -259 -1141 -344 -538 -95 -1063 -140 -1749
-148 -962 -12 -1751 62 -2400 223 -276 69 -569 181 -715 274 -55 35 -157 70
-204 70 -23 0 -45 -9 -66 -26z m2980 -1704 l0 -200 -249 0 c-241 0 -250 1
-256 20 -12 37 -85 119 -129 145 -27 16 -67 29 -101 32 -30 3 -55 9 -55 14 0
4 29 33 64 63 35 31 74 72 87 91 l24 35 308 0 307 0 0 -200z m1300 101 c49
-48 90 -90 90 -93 0 -3 -25 -8 -55 -11 -90 -9 -162 -62 -228 -169 l-17 -28
-245 0 -245 0 0 195 0 195 305 0 304 0 91 -89z"/>
<path d="M4655 10685 c-226 -298 -312 -404 -324 -400 -244 76 -947 285 -953
283 -4 -2 94 -149 218 -328 124 -179 255 -366 290 -416 l64 -92 -291 -417
c-159 -230 -288 -419 -286 -421 2 -2 219 61 483 141 263 80 484 143 490 141 6
-2 148 -185 315 -405 l304 -402 7 203 c5 112 11 342 15 513 l8 310 477 165
c263 91 479 168 482 171 2 2 -209 78 -470 168 -261 91 -478 167 -483 170 -5 3
-14 233 -20 510 -6 278 -13 506 -15 508 -2 2 -142 -179 -311 -402z"/>
<path d="M2957 6068 c-120 -154 -246 -277 -449 -437 -104 -82 -158 -131 -158
-143 0 -10 11 -41 25 -68 28 -55 31 -82 13 -98 -7 -5 -56 -33 -108 -62 -290
-161 -524 -404 -675 -703 -112 -221 -155 -400 -155 -646 0 -175 19 -299 65
-437 132 -397 425 -731 813 -929 52 -27 92 -53 92 -62 0 -7 -24 -67 -54 -133
l-53 -118 86 -38 c101 -46 257 -137 370 -219 l81 -58 0 -183 c0 -116 -4 -185
-10 -189 -18 -11 -337 176 -545 320 -391 270 -713 579 -902 866 -120 184 -221
422 -283 668 -49 198 -64 319 -64 511 0 211 18 299 94 459 60 125 111 194 298
411 188 216 207 240 190 240 -51 0 -294 -123 -402 -204 -107 -79 -293 -261
-368 -360 -70 -93 -175 -303 -218 -435 -74 -229 -93 -406 -70 -671 19 -218 48
-355 125 -580 142 -412 220 -550 630 -1100 258 -347 303 -429 346 -639 10 -52
22 -97 24 -100 3 -2 18 7 33 20 85 79 431 377 512 442 52 43 101 77 110 77 24
0 173 -64 262 -113 138 -76 140 -65 -13 -132 -74 -33 -165 -76 -203 -97 -140
-77 -289 -224 -337 -333 -22 -50 -37 -183 -25 -230 11 -42 83 -113 128 -126
109 -29 266 60 299 170 10 35 9 53 -14 141 l-25 102 46 29 c111 71 236 119
370 143 l32 6 0 -213 c0 -117 -4 -227 -10 -245 -5 -19 -25 -51 -44 -72 -72
-80 -92 -166 -61 -261 27 -79 112 -162 190 -184 82 -24 186 -17 259 19 106 52
187 177 171 263 -8 47 -56 140 -92 183 l-28 34 -3 214 c-4 257 -3 264 41 255
115 -22 397 -151 397 -182 0 -9 -9 -50 -20 -91 -25 -95 -25 -131 0 -179 48
-94 188 -158 288 -131 80 21 141 137 127 241 -12 87 -68 183 -164 279 -120
119 -256 204 -474 295 l-69 29 23 17 c39 29 200 107 286 138 l82 29 53 -38
c29 -20 174 -142 323 -269 148 -127 272 -227 276 -223 4 4 13 45 19 91 26 195
96 314 482 819 205 268 225 298 302 452 152 306 249 585 298 860 19 104 23
162 23 345 0 249 -17 361 -82 549 -121 348 -381 660 -708 849 -90 53 -249 120
-273 115 -18 -4 46 -87 227 -293 152 -173 213 -257 261 -360 61 -128 73 -199
78 -446 5 -261 -9 -370 -73 -593 -113 -395 -284 -676 -609 -1002 -223 -222
-454 -406 -699 -558 -188 -116 -390 -227 -403 -222 -11 4 -14 43 -14 185 l0
180 98 70 c115 82 218 144 353 211 l99 50 -61 121 c-33 67 -57 125 -52 129 4
5 37 20 73 34 225 91 517 334 670 557 178 259 261 522 261 827 0 342 -100 628
-317 907 -157 203 -417 411 -608 489 -31 13 -59 26 -62 29 -3 3 11 43 31 89
l36 83 -23 15 c-201 134 -466 377 -593 544 -33 43 -69 90 -81 104 l-20 25 -97
-125z m735 -1079 c45 -23 107 -59 137 -81 84 -61 300 -283 353 -363 113 -172
200 -488 184 -676 -8 -98 -44 -242 -86 -342 -61 -147 -249 -405 -371 -509 -70
-60 -321 -248 -331 -248 -13 0 -116 360 -175 610 -47 202 -42 663 11 951 46
249 166 699 187 699 5 0 46 -18 91 -41z m-1130 -109 c243 -843 248 -1348 22
-1987 -20 -57 -42 -103 -49 -103 -18 0 -211 117 -293 178 -143 107 -269 264
-358 447 -81 168 -95 229 -101 432 -8 255 20 401 113 585 82 162 237 349 374
449 81 60 222 140 239 137 9 -2 29 -54 53 -138z"/>
<path d="M9439 5335 c-156 -420 -287 -765 -290 -765 -3 0 -322 180 -708 401
-387 220 -705 399 -707 396 -2 -2 117 -345 266 -763 148 -417 270 -764 270
-770 0 -6 -12 -14 -27 -17 -16 -3 -368 -67 -783 -142 -415 -75 -763 -139 -773
-143 -14 -6 154 -109 687 -422 388 -228 706 -417 706 -420 0 -3 -234 -286
-519 -630 -286 -344 -518 -626 -517 -628 2 -1 365 58 806 133 442 74 806 133
809 129 3 -3 7 -370 9 -815 2 -445 7 -809 10 -809 4 1 243 279 532 620 289
340 530 617 535 616 6 -1 246 -281 535 -621 l525 -619 8 819 c5 451 10 822 13
824 2 2 363 -57 801 -132 438 -75 799 -135 801 -132 2 2 -231 288 -519 635
-310 376 -517 635 -511 639 6 3 324 188 706 411 496 290 690 407 678 412 -10
4 -363 71 -787 148 -423 78 -779 144 -791 148 -20 7 -7 45 253 771 150 420
272 765 270 767 -2 2 -318 -174 -703 -393 -384 -218 -706 -398 -714 -400 -12
-3 -78 167 -295 756 -154 419 -283 761 -286 761 -3 0 -133 -344 -290 -765z
m476 -790 c102 -274 186 -500 189 -502 2 -2 214 116 471 262 258 146 470 264
471 262 2 -2 -78 -229 -177 -506 -99 -277 -179 -504 -177 -505 2 -2 233 -45
513 -96 281 -51 520 -96 532 -99 16 -5 -84 -67 -443 -276 -255 -148 -463 -272
-463 -275 0 -3 154 -192 343 -420 189 -228 343 -416 342 -417 -1 -1 -238 38
-527 87 -288 50 -527 90 -531 90 -5 0 -8 -243 -8 -541 0 -306 -4 -539 -9 -537
-5 2 -161 183 -348 403 -187 220 -343 400 -348 400 -5 0 -164 -182 -354 -405
l-346 -406 -6 171 c-4 93 -7 336 -8 538 -1 346 -2 368 -18 363 -31 -9 -1045
-177 -1049 -174 -1 2 150 187 337 413 186 225 339 411 339 414 0 3 -150 94
-333 201 -182 107 -393 230 -467 274 l-135 80 530 96 c435 79 530 99 527 112
-1 8 -81 237 -177 508 -97 271 -174 494 -172 496 2 2 201 -109 443 -247 241
-138 451 -257 465 -264 l26 -14 189 509 c104 279 190 507 192 505 2 -1 86
-227 187 -500z"/>
<path d="M16153 6079 c-55 -16 -156 -92 -205 -154 l-48 -59 0 -153 0 -154 -37
26 c-48 32 -152 65 -207 65 -104 0 -205 -58 -281 -161 l-45 -61 0 -259 0 -258
-54 24 c-203 90 -380 26 -479 -171 l-26 -51 -2 -1564 -1 -1564 22 -130 c69
-408 252 -767 513 -1010 299 -279 718 -420 1192 -402 247 10 421 50 613 142
153 73 248 141 372 265 179 178 307 396 400 679 91 279 110 420 94 726 -53
1001 -38 1689 45 2097 22 106 17 122 -56 161 -107 57 -287 83 -402 56 -115
-26 -237 -119 -299 -229 l-32 -55 0 697 0 696 -51 77 c-59 88 -140 154 -213
175 -28 8 -75 11 -120 8 -62 -4 -85 -11 -150 -46 l-76 -41 0 200 c0 154 -3
206 -14 228 -24 45 -140 147 -203 177 -45 21 -75 28 -138 30 -44 2 -94 -1
-112 -7z m203 -144 c27 -13 68 -44 91 -67 l41 -43 7 -1280 c7 -1275 7 -1280
28 -1302 26 -29 61 -29 88 -2 l21 21 -7 1008 -7 1007 58 48 c76 62 135 88 199
88 61 0 97 -18 151 -75 82 -86 74 38 74 -1196 l0 -1103 25 -24 c29 -30 45 -31
77 -5 25 19 25 21 31 217 12 444 108 703 292 793 73 36 214 39 305 8 36 -13
64 -28 63 -33 -85 -493 -101 -1175 -48 -2122 11 -214 11 -261 -1 -348 -57
-396 -213 -743 -437 -974 -184 -188 -399 -302 -682 -358 -124 -25 -478 -25
-612 0 -268 50 -473 140 -658 291 -308 249 -512 663 -555 1126 -7 79 -8 581
-3 1605 l8 1490 32 47 c71 102 167 121 301 59 39 -19 77 -40 83 -48 8 -9 12
-253 13 -879 1 -845 1 -866 20 -880 26 -19 65 -18 88 3 17 15 18 66 18 1201
l0 1185 35 43 c92 112 234 110 359 -7 l46 -42 0 -1083 c0 -1071 0 -1084 20
-1104 11 -11 31 -20 45 -20 14 0 34 9 45 20 20 20 20 33 20 1324 l0 1304 44
45 c87 90 183 111 282 62z"/>
<path d="M16241 2789 c-499 -62 -901 -446 -988 -944 -23 -132 -13 -347 21
-478 81 -314 310 -594 604 -741 135 -68 344 -116 502 -116 501 0 954 340 1094
822 74 256 57 536 -47 777 -147 338 -470 597 -832 666 -98 19 -264 26 -354 14z
m69 -72 c0 -19 7 -132 15 -252 9 -120 14 -219 13 -220 -2 -2 -19 -6 -38 -10
l-35 -6 -48 243 c-26 134 -48 248 -47 255 0 13 30 19 98 22 41 1 42 0 42 -32z
m278 18 c3 -2 -17 -116 -44 -252 l-50 -248 -34 3 c-19 2 -37 5 -39 7 -2 2 4
109 13 238 9 128 16 242 16 252 0 16 7 17 66 12 37 -4 69 -9 72 -12z m-483
-277 c43 -128 78 -237 79 -242 0 -5 -14 -15 -32 -23 l-33 -14 -110 224 c-60
124 -109 229 -109 234 0 12 86 52 112 53 13 0 34 -52 93 -232z m704 211 c28
-12 51 -25 51 -29 0 -6 -208 -440 -216 -448 -6 -8 -74 23 -71 33 2 5 39 112
82 238 45 132 83 227 90 227 7 0 35 -10 64 -21z m-899 -314 l143 -215 -24 -20
c-13 -11 -29 -19 -35 -17 -13 2 -334 367 -334 379 0 6 97 88 104 88 2 0 67
-97 146 -215z m1182 138 c8 -10 6 -19 -9 -36 -11 -12 -84 -95 -162 -184 -79
-90 -147 -163 -151 -163 -4 0 -19 9 -33 21 l-27 20 142 209 141 209 44 -32
c24 -17 49 -37 55 -44z m-1174 -482 c-13 -14 -24 -27 -25 -29 -2 -6 -423 278
-423 286 0 11 28 52 58 84 l24 27 194 -171 194 -171 -22 -26z m1333 314 c24
-32 38 -59 33 -64 -5 -5 -98 -68 -207 -140 l-197 -132 -25 28 c-22 26 -23 29
-7 45 18 18 355 317 359 317 1 1 21 -24 44 -54z m-857 -205 c29 -11 66 -35 83
-52 30 -32 56 -97 48 -121 -2 -7 -6 -24 -9 -39 -4 -19 -14 -28 -35 -33 -65
-14 -103 -87 -77 -149 14 -35 59 -76 83 -76 25 0 37 -54 37 -177 1 -102 -2
-125 -16 -139 -23 -24 -40 -8 -83 75 l-34 66 -1 -164 0 -164 65 6 c37 4 67 2
70 -3 10 -16 -45 -31 -104 -28 l-56 3 -3 223 c-2 177 0 223 10 220 7 -2 36
-51 64 -108 l51 -105 8 49 c4 26 5 82 1 125 -5 62 -10 79 -28 91 -56 40 -97
88 -103 123 -11 56 27 126 83 152 41 19 42 21 42 66 0 78 -63 129 -189 153
l-34 6 6 -495 c6 -408 4 -495 -7 -495 -16 0 -26 281 -26 729 l0 294 51 -7 c28
-4 74 -16 103 -26z m213 -37 c50 -85 40 -238 -19 -288 -16 -14 -39 -25 -51
-25 -18 0 -15 -4 13 -18 24 -12 43 -33 60 -67 23 -47 25 -61 28 -257 3 -115 7
-208 11 -208 3 0 15 7 25 15 23 17 46 20 46 5 0 -12 -90 -72 -103 -67 -4 1 -9
103 -10 227 -3 270 -11 299 -84 331 -57 24 -55 49 5 68 62 19 77 48 77 146 0
75 -3 86 -33 134 -18 29 -29 57 -26 62 8 14 31 -7 61 -58z m-758 -169 c3 -2
-3 -19 -11 -37 l-16 -34 -239 81 c-266 90 -252 80 -214 169 l20 46 228 -110
c125 -61 230 -113 232 -115z m1550 157 c12 -29 19 -57 14 -61 -9 -9 -455 -162
-458 -158 -1 2 -10 18 -19 36 l-17 33 223 109 c123 59 226 105 229 102 3 -4
16 -31 28 -61z m-1254 17 c2 -7 6 -212 8 -455 4 -345 2 -443 -8 -443 -13 0
-25 161 -25 332 l0 88 -45 0 -45 0 0 -165 c0 -91 -4 -165 -9 -165 -25 0 -111
128 -111 165 0 24 20 18 30 -10 5 -14 21 -42 35 -63 l25 -37 0 137 0 137 -37
3 c-52 4 -56 28 -4 28 l41 0 0 146 c0 88 -4 143 -9 139 -6 -3 -24 -30 -41 -60
-32 -56 -50 -69 -50 -37 0 26 98 172 116 172 12 0 14 -30 14 -180 l0 -180 45
0 45 0 0 230 c0 151 4 230 10 230 6 0 12 -6 15 -12z m611 -94 c10 -38 -4 -152
-25 -198 -17 -40 -17 -43 2 -101 15 -47 20 -91 21 -209 1 -102 -3 -150 -10
-153 -8 -3 -13 42 -17 144 -4 111 -10 164 -26 214 -19 61 -20 69 -6 96 21 42
38 140 32 185 -3 20 -2 39 1 42 12 12 22 5 28 -20z m-960 -262 c-3 -19 -6 -36
-8 -37 -3 -2 -497 31 -506 34 -4 1 7 97 14 122 4 14 35 10 255 -34 l251 -50
-6 -35z m1677 51 c7 -64 26 -58 -228 -73 -104 -6 -206 -11 -225 -13 -35 -2
-35 -1 -35 38 l0 40 235 46 c264 52 242 55 253 -38z m-1679 -205 c3 -17 4 -33
1 -36 -2 -3 -113 -27 -247 -53 -169 -34 -244 -46 -249 -38 -8 13 -21 120 -16
126 5 5 351 30 438 32 l67 1 6 -32z m1475 17 c112 -8 205 -16 208 -18 4 -5
-14 -127 -20 -133 -2 -2 -110 18 -240 43 -223 45 -237 49 -237 69 0 62 -11 61
289 39z m-1440 -166 c6 -18 11 -34 11 -35 0 -5 -437 -224 -445 -224 -9 0 -56
111 -52 123 2 8 438 162 469 166 3 1 11 -13 17 -30z m1356 -49 c116 -39 216
-74 223 -79 10 -6 9 -19 -8 -62 -12 -30 -25 -58 -29 -62 -6 -6 -417 189 -438
207 -7 6 23 66 32 66 5 0 105 -32 220 -70z m-1284 -82 c10 -13 18 -28 19 -35
0 -10 -350 -325 -368 -330 -10 -3 -84 96 -80 107 2 8 394 277 406 279 2 1 12
-9 23 -21z m1196 -124 c104 -70 190 -129 192 -130 6 -5 -36 -68 -61 -91 l-23
-22 -178 155 c-97 85 -177 160 -177 165 0 19 35 58 47 54 7 -2 97 -61 200
-131z m-1061 -31 c-3 -7 -64 -101 -137 -208 l-131 -196 -27 18 c-42 27 -81 60
-81 68 0 3 72 89 161 190 l161 184 29 -21 c16 -12 27 -28 25 -35z m909 -135
l159 -181 -40 -34 c-74 -65 -59 -75 -208 148 l-134 201 26 24 c15 13 30 24 33
24 3 0 77 -82 164 -182z m-795 87 c17 -9 30 -19 30 -23 0 -6 -151 -453 -155
-460 -5 -6 -117 43 -121 53 -4 11 203 445 213 445 2 0 17 -7 33 -15z m605
-206 c59 -116 105 -215 103 -221 -4 -10 -118 -62 -123 -56 -4 5 -155 449 -155
457 0 6 43 27 62 30 5 1 55 -94 113 -210z m-419 97 c-3 -33 -10 -140 -16 -236
-6 -96 -13 -180 -15 -186 -2 -8 -22 -8 -66 -2 -34 4 -65 10 -67 13 -3 3 12 89
32 192 20 104 41 211 47 238 l9 50 41 -3 41 -4 -6 -62z m172 17 c42 -196 84
-424 80 -428 -4 -4 -131 -24 -134 -21 -6 4 -33 480 -28 487 3 5 20 9 39 9 32
0 34 -2 43 -47z"/>
</g>
</svg>
