<?xml version="1.0" encoding="UTF-8" standalone="no"?>
<!-- Created with Inkscape (http://www.inkscape.org/) -->

<svg
   xmlns:dc="http://purl.org/dc/elements/1.1/"
   xmlns:cc="http://creativecommons.org/ns#"
   xmlns:rdf="http://www.w3.org/1999/02/22-rdf-syntax-ns#"
   xmlns:svg="http://www.w3.org/2000/svg"
   xmlns="http://www.w3.org/2000/svg"
   version="1.2"
   width="317.40625"
   height="317.40625"
   id="svg2">
  <metadata
     id="metadata3238">
    <rdf:RDF>
      <cc:Work
         rdf:about="">
        <dc:format>image/svg+xml</dc:format>
        <dc:type
           rdf:resource="http://purl.org/dc/dcmitype/StillImage" />
        <dc:title></dc:title>
      </cc:Work>
    </rdf:RDF>
  </metadata>
  <defs
     id="defs3236" />
  <g
     id="g3144">
    <g
       id="Calque_1">
      <g
         id="g3147">
        <g
           id="g3149">
          <path
             d="m 181.845,96.998 8.554,-19.662 c 0,0 10.78,-21.166 1.924,-35.65 -2.947,-4.816 -6.533,-7.007 -12.021,-11.629 -9.876,-8.323 -16.413,-11.125 -21.619,-24.354 -5.488,13.117 -12.079,15.779 -22.13,23.892 -5.581,4.507 -9.215,6.621 -12.264,11.375 -9.16,14.295 1.175,35.683 1.175,35.683 l 8.141,19.837"
             id="path3151"
             style="fill:#ffffff;stroke:#000000;stroke-width:4.28970003" />
          <path
             d="m 218.702,131.433 19.953,-7.855 c 0,0 22.591,-7.343 26.57,-23.846 1.32,-5.492 0.334,-9.577 -0.278,-16.726 -1.098,-12.87 -3.738,-19.472 1.935,-32.509 -13.156,5.396 -19.699,2.618 -32.546,1.247 -7.132,-0.761 -11.195,-1.835 -16.713,-0.628 -16.583,3.63 -24.398,26.061 -24.398,26.061 l -8.276,19.782"
             id="path3153"
             style="fill:#ffffff;stroke:#000000;stroke-width:4.28970003" />
          <path
             d="m 220.418,181.843 19.661,8.555 c 0,0 21.166,10.781 35.65,1.926 4.815,-2.951 7.006,-6.537 11.628,-12.023 8.325,-9.876 11.126,-16.414 24.355,-21.621 -13.117,-5.486 -15.781,-12.077 -23.894,-22.129 -4.504,-5.581 -6.621,-9.214 -11.376,-12.261 -14.295,-9.161 -35.679,1.175 -35.679,1.175 l -19.842,8.137"
             id="path3155"
             style="fill:#ffffff;stroke:#000000;stroke-width:4.28970003" />
          <path
             d="m 185.985,218.702 7.854,19.951 c 0,0 7.341,22.592 23.846,26.569 5.493,1.321 9.576,0.333 16.726,-0.277 12.868,-1.098 19.473,-3.74 32.51,1.933 -5.398,-13.156 -2.616,-19.697 -1.248,-32.544 0.762,-7.132 1.834,-11.196 0.626,-16.714 -3.63,-16.584 -26.061,-24.399 -26.061,-24.399 l -19.783,-8.272"
             id="path3157"
             style="fill:#ffffff;stroke:#000000;stroke-width:4.28970003" />
          <path
             d="m 135.572,220.417 -8.552,19.662 c 0,0 -10.782,21.166 -1.929,35.648 2.95,4.818 6.539,7.007 12.024,11.632 9.872,8.322 16.413,11.122 21.619,24.353 5.488,-13.118 12.079,-15.779 22.13,-23.894 5.581,-4.506 9.215,-6.621 12.264,-11.377 9.16,-14.292 -1.175,-35.681 -1.175,-35.681 l -8.139,-19.836"
             id="path3159"
             style="fill:#ffffff;stroke:#000000;stroke-width:4.28970003" />
          <path
             d="m 98.715,185.982 -19.953,7.854 c 0,0 -22.591,7.344 -26.57,23.846 -1.32,5.493 -0.333,9.578 0.278,16.727 1.098,12.869 3.738,19.472 -1.935,32.508 13.156,-5.395 19.697,-2.617 32.546,-1.247 7.132,0.761 11.195,1.834 16.716,0.626 16.584,-3.63 24.396,-26.062 24.396,-26.062 l 8.273,-19.78"
             id="path3161"
             style="fill:#ffffff;stroke:#000000;stroke-width:4.28970003" />
          <path
             d="m 96.999,135.572 -19.661,-8.555 c 0,0 -21.166,-10.783 -35.65,-1.926 -4.815,2.951 -7.005,6.536 -11.628,12.024 -8.325,9.874 -11.126,16.412 -24.355,21.62 13.117,5.484 15.777,12.076 23.894,22.129 4.504,5.581 6.621,9.215 11.376,12.263 14.295,9.16 35.682,-1.175 35.682,-1.175 l 19.839,-8.139"
             id="path3163"
             style="fill:#ffffff;stroke:#000000;stroke-width:4.28970003" />
          <path
             d="m 131.432,98.713 -7.853,-19.952 c 0,0 -7.346,-22.593 -23.847,-26.569 -5.493,-1.321 -9.579,-0.333 -16.729,0.276 -12.864,1.097 -19.469,3.741 -32.506,-1.933 5.395,13.154 2.616,19.697 1.248,32.545 -0.762,7.131 -1.834,11.196 -0.631,16.713 3.633,16.585 26.065,24.401 26.065,24.401 l 19.779,8.271"
             id="path3165"
             style="fill:#ffffff;stroke:#000000;stroke-width:4.28970003" />
        </g>
        <g
           id="g3167">
          <path
             d="m 157.374,116.743 -0.111,-25.911 c 0,0 1.445,-18.411 -9.225,-26.179 -3.551,-2.583 -6.777,-3.088 -12.096,-4.777 -9.569,-3.039 -15.099,-3.106 -22.774,-11.06 -0.04,11.054 -3.982,14.928 -8.786,23.745 -2.669,4.897 -4.648,7.498 -5.424,11.819 -2.326,12.992 11.46,25.28 11.46,25.28 l 18.869,19.095"
             id="path3169"
             style="fill:#ffffff;stroke:#000000;stroke-width:3" />
          <path
             d="m 193.686,121.268 11.993,-11.578 c 0,0 14.043,-11.996 11.991,-25.033 -0.687,-4.337 -2.61,-6.978 -5.176,-11.93 -4.618,-8.918 -8.48,-12.875 -8.283,-23.926 -7.844,7.79 -13.372,7.741 -23.005,10.578 -5.351,1.577 -8.589,2.014 -12.191,4.521 -10.832,7.542 -9.771,25.979 -9.771,25.979 l -0.158,26.846"
             id="path3171"
             style="fill:#ffffff;stroke:#000000;stroke-width:3" />
          <path
             d="m 209.917,156.965 16.667,0.295 c 0,0 18.41,1.447 26.179,-9.224 2.581,-3.552 3.088,-6.779 4.775,-12.096 3.042,-9.57 3.107,-15.1 11.062,-22.775 -11.054,-0.038 -14.928,-3.979 -23.746,-8.787 -4.896,-2.667 -7.497,-4.648 -11.819,-5.422 -12.993,-2.328 -25.277,11.459 -25.277,11.459 l -11.829,11.747"
             id="path3173"
             style="fill:#ffffff;stroke:#000000;stroke-width:3" />
          <path
             d="m 196.15,193.685 11.577,11.994 c 0,0 11.993,14.043 25.033,11.989 4.338,-0.686 6.977,-2.61 11.93,-5.175 8.916,-4.617 12.874,-8.48 23.926,-8.284 -7.791,-7.843 -7.738,-13.37 -10.579,-23.005 -1.575,-5.35 -2.014,-8.588 -4.522,-12.19 -7.541,-10.832 -25.978,-9.772 -25.978,-9.772 l -16.671,-0.057"
             id="path3175"
             style="fill:#ffffff;stroke:#000000;stroke-width:3" />
          <path
             d="m 160.45,209.915 -0.292,16.667 c 0,0 -1.448,18.411 9.222,26.179 3.551,2.584 6.78,3.088 12.095,4.777 9.569,3.041 15.101,3.105 22.775,11.061 0.039,-11.056 3.982,-14.928 8.786,-23.746 2.668,-4.897 4.648,-7.498 5.423,-11.82 2.327,-12.99 -11.46,-25.279 -11.46,-25.279 l -11.746,-11.826"
             id="path3177"
             style="fill:#ffffff;stroke:#000000;stroke-width:3" />
          <path
             d="m 123.732,196.147 -11.995,11.578 c 0,0 -14.041,11.996 -11.99,25.032 0.687,4.339 2.611,6.979 5.176,11.932 4.619,8.917 8.48,12.874 8.284,23.925 7.843,-7.789 13.369,-7.738 23.004,-10.578 5.35,-1.576 8.588,-2.014 12.193,-4.523 10.833,-7.541 9.769,-25.978 9.769,-25.978 l 0.059,-16.669"
             id="path3179"
             style="fill:#ffffff;stroke:#000000;stroke-width:3" />
          <path
             d="m 107.501,160.45 -16.667,-0.295 c 0,0 -18.412,-1.448 -26.181,9.223 -2.58,3.553 -3.087,6.779 -4.774,12.097 -3.042,9.569 -3.109,15.099 -11.062,22.774 11.054,0.037 14.926,3.979 23.746,8.786 4.896,2.668 7.497,4.648 11.818,5.423 12.993,2.326 25.28,-11.459 25.28,-11.459 l 11.827,-11.748"
             id="path3181"
             style="fill:#ffffff;stroke:#000000;stroke-width:3" />
          <path
             d="m 128.07,130.002 -18.38,-18.267 c 0,0 -11.997,-14.042 -25.032,-11.989 -4.339,0.686 -6.979,2.611 -11.934,5.176 -8.913,4.615 -12.871,8.479 -23.924,8.283 7.788,7.843 7.74,13.369 10.58,23.004 1.574,5.349 2.014,8.587 4.521,12.193 7.542,10.833 25.979,9.771 25.979,9.771 l 16.669,0.056"
             id="path3183"
             style="fill:#ffffff;stroke:#000000;stroke-width:3" />
        </g>
        <g
           id="g3185">
          <path
             d="m 172.823,121.062 5.219,-11.994 c 0,0 6.576,-12.912 1.174,-21.748 -1.799,-2.938 -3.986,-4.274 -7.334,-7.095 -6.025,-5.077 -10.014,-6.786 -13.189,-14.856 -3.348,8.002 -7.369,9.626 -13.5,14.575 -3.404,2.749 -5.621,4.039 -7.48,6.939 -5.588,8.72 0.717,21.768 0.717,21.768 l 4.965,12.102"
             id="path3187"
             style="fill:#ffffff;stroke:#000000;stroke-width:3" />
          <path
             d="m 195.307,142.069 12.172,-4.792 c 0,0 13.781,-4.479 16.209,-14.547 0.805,-3.351 0.203,-5.843 -0.17,-10.203 -0.67,-7.852 -2.281,-11.879 1.18,-19.832 -8.025,3.292 -12.018,1.597 -19.854,0.761 -4.352,-0.464 -6.83,-1.119 -10.195,-0.383 -10.117,2.215 -14.885,15.898 -14.885,15.898 l -5.049,12.067"
             id="path3189"
             style="fill:#ffffff;stroke:#000000;stroke-width:3" />
          <path
             d="m 196.354,172.821 11.994,5.219 c 0,0 12.912,6.576 21.748,1.174 2.938,-1.799 4.273,-3.986 7.094,-7.334 5.078,-6.025 6.787,-10.014 14.857,-13.189 -8.002,-3.347 -9.627,-7.368 -14.576,-13.5 -2.748,-3.404 -4.039,-5.621 -6.939,-7.479 -8.721,-5.589 -21.766,0.717 -21.766,0.717 l -12.104,4.964"
             id="path3191"
             style="fill:#ffffff;stroke:#000000;stroke-width:3" />
          <path
             d="m 175.348,195.306 4.791,12.172 c 0,0 4.479,13.781 14.547,16.209 3.352,0.805 5.842,0.203 10.203,-0.17 7.85,-0.67 11.879,-2.281 19.832,1.18 -3.293,-8.025 -1.596,-12.018 -0.762,-19.854 0.465,-4.352 1.119,-6.83 0.383,-10.195 -2.215,-10.117 -15.898,-14.885 -15.898,-14.885 l -12.068,-5.047"
             id="path3193"
             style="fill:#ffffff;stroke:#000000;stroke-width:3" />
          <path
             d="m 144.594,196.353 -5.217,11.994 c 0,0 -6.578,12.912 -1.176,21.748 1.799,2.939 3.988,4.273 7.334,7.096 6.023,5.076 10.014,6.785 13.189,14.855 3.348,-8.002 7.369,-9.625 13.5,-14.576 3.404,-2.748 5.621,-4.039 7.48,-6.939 5.588,-8.719 -0.717,-21.768 -0.717,-21.768 l -4.965,-12.1"
             id="path3195"
             style="fill:#ffffff;stroke:#000000;stroke-width:3" />
          <path
             d="m 122.11,175.347 -12.172,4.791 c 0,0 -13.781,4.48 -16.209,14.547 -0.805,3.352 -0.203,5.844 0.17,10.203 0.67,7.852 2.281,11.879 -1.18,19.832 8.025,-3.291 12.016,-1.596 19.854,-0.762 4.352,0.465 6.83,1.119 10.197,0.383 10.117,-2.215 14.883,-15.898 14.883,-15.898 l 5.047,-12.066"
             id="path3197"
             style="fill:#ffffff;stroke:#000000;stroke-width:3" />
          <path
             d="m 121.063,144.594 -11.994,-5.219 c 0,0 -12.912,-6.578 -21.748,-1.175 -2.938,1.8 -4.273,3.987 -7.094,7.335 -5.078,6.023 -6.787,10.012 -14.857,13.188 8.002,3.348 9.625,7.367 14.576,13.5 2.748,3.404 4.039,5.621 6.939,7.48 8.721,5.588 21.768,-0.717 21.768,-0.717 l 12.102,-4.965"
             id="path3199"
             style="fill:#ffffff;stroke:#000000;stroke-width:3" />
          <path
             d="m 142.069,122.109 -4.791,-12.172 c 0,0 -4.48,-13.782 -14.547,-16.208 -3.352,-0.806 -5.844,-0.203 -10.205,0.169 -7.848,0.669 -11.877,2.281 -19.83,-1.18 3.291,8.024 1.596,12.016 0.762,19.854 -0.465,4.351 -1.119,6.83 -0.385,10.196 2.215,10.117 15.9,14.885 15.9,14.885 l 12.066,5.046"
             id="path3201"
             style="fill:#ffffff;stroke:#000000;stroke-width:3" />
        </g>
        <g
           id="g3203">
          <path
             d="m 157.374,116.743 0.2,-11.295 c 0,0 1.134,-14.446 -7.238,-20.542 -2.786,-2.026 -5.318,-2.423 -9.491,-3.748 -7.509,-2.385 -11.848,-2.438 -17.87,-8.678 -0.031,8.674 -3.125,11.713 -6.895,18.632 -2.094,3.843 -3.647,5.883 -4.256,9.274 -1.825,10.194 8.992,19.836 8.992,19.836 l 8.471,8.534"
             id="path3205"
             style="fill:#ffffff;stroke:#000000;stroke-width:3" />
          <path
             d="m 186.154,129.33 9.411,-9.085 c 0,0 11.019,-9.413 9.409,-19.643 -0.539,-3.403 -2.049,-5.476 -4.062,-9.361 -3.624,-6.998 -6.654,-10.102 -6.5,-18.774 -6.154,6.112 -10.492,6.074 -18.051,8.3 -4.198,1.237 -6.739,1.58 -9.566,3.548 -8.499,5.918 -7.71,32.409 -7.71,32.409"
             id="path3207"
             style="fill:#ffffff;stroke:#000000;stroke-width:3" />
          <path
             d="m 198.889,157.34 13.078,0.231 c 0,0 14.446,1.135 20.542,-7.237 2.025,-2.787 2.423,-5.319 3.747,-9.491 2.387,-7.509 2.438,-11.848 8.68,-17.871 -8.674,-0.03 -11.714,-3.123 -18.633,-6.895 -3.842,-2.093 -5.883,-3.647 -9.274,-4.254 -10.195,-1.826 -19.834,8.992 -19.834,8.992 l -9.282,9.218"
             id="path3209"
             style="fill:#ffffff;stroke:#000000;stroke-width:3" />
          <path
             d="m 188.087,186.152 9.084,9.412 c 0,0 9.411,11.019 19.643,9.407 3.404,-0.538 5.475,-2.048 9.361,-4.061 6.996,-3.623 10.102,-6.654 18.773,-6.5 -6.113,-6.154 -6.072,-10.492 -8.301,-18.051 -1.236,-4.197 -1.58,-6.738 -3.549,-9.566 -5.917,-8.499 -20.384,-7.668 -20.384,-7.668 l -13.081,-0.044"
             id="path3211"
             style="fill:#ffffff;stroke:#000000;stroke-width:3" />
          <path
             d="m 160.075,198.888 -0.229,13.078 c 0,0 -1.136,14.447 7.236,20.542 2.786,2.027 5.32,2.423 9.49,3.749 7.509,2.386 11.849,2.437 17.871,8.678 0.03,-8.674 3.125,-11.713 6.895,-18.633 2.093,-3.842 3.647,-5.883 4.255,-9.274 1.826,-10.193 -8.992,-19.835 -8.992,-19.835 l -9.217,-9.279"
             id="path3213"
             style="fill:#ffffff;stroke:#000000;stroke-width:3" />
          <path
             d="m 131.263,188.085 -9.412,9.086 c 0,0 -11.018,9.412 -9.408,19.641 0.539,3.404 2.049,5.477 4.062,9.363 3.624,6.996 6.654,10.102 6.5,18.772 6.154,-6.112 10.49,-6.072 18.051,-8.3 4.197,-1.237 6.738,-1.58 9.567,-3.549 8.5,-5.918 7.665,-20.385 7.665,-20.385 l 0.046,-13.08"
             id="path3215"
             style="fill:#ffffff;stroke:#000000;stroke-width:3" />
          <path
             d="m 118.528,160.075 -13.078,-0.232 c 0,0 -14.447,-1.136 -20.543,7.238 -2.024,2.787 -2.422,5.318 -3.746,9.49 -2.387,7.509 -2.439,11.848 -8.68,17.871 8.674,0.029 11.712,3.123 18.633,6.895 3.842,2.093 5.883,3.646 9.273,4.255 10.195,1.825 19.837,-8.992 19.837,-8.992 l 9.28,-9.218"
             id="path3217"
             style="fill:#ffffff;stroke:#000000;stroke-width:3" />
          <path
             d="m 128.07,130.002 c 0,0 -17.238,-19.17 -27.467,-17.559 -3.404,0.538 -5.477,2.048 -9.363,4.061 -6.994,3.622 -10.1,6.653 -18.772,6.499 6.111,6.154 6.073,10.49 8.302,18.051 1.235,4.197 1.58,6.738 3.547,9.567 5.918,8.5 20.386,7.667 20.386,7.667 l 13.079,0.044"
             id="path3219"
             style="fill:#ffffff;stroke:#000000;stroke-width:3" />
        </g>
        <g
           id="g3221">
          <path
             d="m 224.514,158.708 c 0,36.343 -29.463,65.805 -65.807,65.805 -36.342,0 -65.805,-29.462 -65.805,-65.805 0,-36.344 29.463,-65.806 65.805,-65.806 36.344,0 65.807,29.462 65.807,65.806 z"
             id="path3223"
             style="fill:#ffffff;stroke:#000000;stroke-width:4.70200014" />
          <g
             id="g3225">
            <g
               id="g3227">
              <path
                 d="m 202.679,138.484 c -2.72,-2.718 -5.424,-3.853 -9.891,-4.143 -8.463,-0.552 -14.262,3.737 -16.917,12.511 -1.264,4.172 -1.063,3.982 -4.48,4.25 -4.671,0.365 -9.248,2.5 -13.975,6.52 -1.193,1.014 -2.324,1.842 -2.515,1.842 -0.188,0 -0.752,-0.432 -1.249,-0.961 l -0.904,-0.962 0.743,-2 c 0.979,-2.643 0.985,-9.001 0.01,-12.299 -2.079,-7.035 -6.828,-12.029 -13.362,-14.058 -3.87,-1.201 -10.254,-1.195 -14.713,0.017 -3.678,0.995 -5.397,1.792 -5.397,2.494 0,0.62 3.729,9.809 4.221,10.401 0.269,0.322 0.974,0.149 2.653,-0.65 4.017,-1.913 8.481,-3.001 12.329,-3.001 4.309,0 6.192,0.553 7.982,2.345 2.58,2.579 2.828,7.23 0.626,11.574 -1.67,3.295 -6.184,6.53 -12.047,8.638 -1.313,0.473 -2.39,0.889 -2.39,0.924 0,0.346 4.333,10.418 4.642,10.79 0.326,0.394 0.765,0.286 2.182,-0.532 2.979,-1.721 6.67,-4.848 8.462,-7.172 l 1.701,-2.205 1.587,1.754 c 5.278,5.83 8.224,12.996 8.275,20.129 0.035,5.4 -1.082,8.57 -4.189,11.895 -3.117,3.334 -6.863,4.92 -11.574,4.902 -14.787,-0.053 -27.975,-14.986 -32.692,-37.017 -0.512,-2.398 -1,-4.427 -1.082,-4.509 -0.08,-0.082 -0.957,0.057 -1.945,0.305 l -1.799,0.453 0.253,2.336 c 0.794,7.41 3.459,16.725 6.524,22.836 7.133,14.208 18.011,23.133 30.167,24.751 1.471,0.197 3.963,0.273 5.541,0.171 10.399,-0.668 17.295,-5.898 19.579,-14.85 1.873,-7.338 -0.508,-16.953 -6.347,-25.63 l -1.782,-2.649 0.865,-0.711 c 1.432,-1.176 5.139,-2.904 7.543,-3.52 1.97,-0.504 2.427,-0.509 3.563,-0.033 2.879,1.202 3.714,3.938 3.715,12.172 0.004,14.838 3.199,20.495 11.652,20.631 5.361,0.086 9.32,-1.51 12.994,-5.236 5.204,-5.282 7.917,-13.179 8.466,-24.643 0.604,-12.674 -1.945,-22.778 -7.025,-27.86 z m -1.381,40.137 c -1.449,2.433 -4.315,5.182 -6.498,6.232 -2.271,1.093 -5.968,1.521 -7.803,0.904 -0.688,-0.231 -1.838,-1.071 -2.557,-1.868 -2.285,-2.527 -2.573,-4.188 -2.836,-16.399 -0.257,-11.812 -0.435,-12.807 -2.595,-14.506 l -0.924,-0.727 1.066,-1.68 c 2.531,-3.982 6.481,-6.097 11.386,-6.097 7.487,-10e-4 12.814,6.344 13.961,16.622 0.691,6.174 -0.581,13.13 -3.2,17.519 z"
                 id="path3229" />
            </g>
          </g>
          <path
             d="m 159.535,131.574 c -5.291,-1.387 -10.299,-4.599 -14.1,-9.043 -2.091,-2.445 -4.002,-4.947 -4.002,-5.239 0,-0.101 0.693,-0.734 1.544,-1.409 l 1.545,-1.224 2.563,2.454 c 3.05,2.923 4.43,3.798 7.692,4.893 6.518,2.186 13.101,0.224 18.173,-5.416 1.586,-1.76 1.81,-1.89 2.405,-1.38 0.363,0.309 2.381,1.987 4.481,3.732 2.103,1.745 3.876,3.386 3.938,3.645 0.159,0.661 -4.773,4.83 -7.859,6.642 -5.203,3.055 -10.68,3.839 -16.38,2.345 z"
             id="path3231" />
          <path
             d="m 157.768,113.822 -3.345,-3.512 3.387,-3.321 c 1.865,-1.828 3.538,-3.322 3.721,-3.322 0.38,0 7.034,6.544 7.034,6.92 0,0.416 -6.507,6.642 -6.996,6.696 -0.251,0.029 -1.962,-1.529 -3.801,-3.461 z"
             id="path1945_1_" />
        </g>
      </g>
    </g>
  </g>
</svg>
